<?xml version="1.0" standalone="no"?>
<!DOCTYPE svg PUBLIC "-//W3C//DTD SVG 20010904//EN"
 "http://www.w3.org/TR/2001/REC-SVG-20010904/DTD/svg10.dtd">
<svg version="1.0" xmlns="http://www.w3.org/2000/svg"
 width="1415.000000pt" height="1415.000000pt" viewBox="0 0 1415.000000 1415.000000"
 preserveAspectRatio="xMidYMid meet">
<metadata>
Created by potrace 1.11, written by Peter Selinger 2001-2013
</metadata>
<g transform="translate(0.000000,1415.000000) scale(0.100000,-0.100000)"
fill="#000000" stroke="none">
<path d="M6778 14145 c-2 -1 -64 -5 -138 -9 -74 -4 -151 -8 -170 -11 -19 -2
-72 -6 -117 -10 -46 -3 -91 -8 -100 -9 -10 -2 -52 -7 -93 -11 -41 -4 -77 -8
-80 -10 -3 -2 -34 -6 -70 -10 -36 -4 -112 -16 -170 -26 -58 -11 -112 -20 -120
-21 -8 0 -55 -9 -105 -20 -49 -10 -103 -21 -120 -24 -237 -42 -877 -239 -1072
-329 -17 -8 -34 -15 -37 -15 -3 0 -25 -8 -49 -19 -165 -72 -193 -85 -197 -90
-3 -3 -12 -7 -20 -9 -37 -8 -443 -217 -510 -262 -8 -6 -22 -13 -30 -17 -8 -4
-61 -35 -118 -70 -57 -35 -107 -63 -112 -63 -5 0 -10 -3 -12 -7 -1 -5 -41 -33
-88 -63 -47 -30 -89 -59 -95 -63 -19 -15 -157 -112 -174 -122 -9 -5 -18 -12
-21 -15 -3 -3 -23 -18 -45 -35 -22 -16 -45 -34 -52 -40 -36 -30 -43 -35 -52
-35 -5 0 -11 -4 -13 -8 -1 -4 -37 -34 -78 -67 -41 -33 -80 -64 -86 -70 -6 -5
-28 -23 -48 -40 -67 -53 -76 -62 -68 -71 4 -5 3 -6 -2 -2 -9 7 -93 -63 -216
-179 -30 -28 -68 -64 -85 -79 -16 -15 -29 -32 -27 -37 1 -5 -1 -6 -6 -3 -11 6
-43 -30 -34 -39 4 -4 2 -5 -4 -3 -17 5 -331 -318 -326 -335 1 -5 -2 -6 -7 -3
-5 3 -16 -4 -24 -17 -8 -12 -30 -38 -48 -57 -18 -19 -76 -87 -128 -150 -53
-63 -98 -117 -101 -120 -3 -3 -28 -34 -55 -70 -28 -35 -54 -69 -58 -75 -82
-102 -367 -516 -367 -533 0 -5 -9 -17 -20 -27 -11 -10 -20 -22 -20 -27 0 -5
-17 -37 -38 -71 -22 -34 -50 -82 -64 -107 -14 -25 -36 -63 -48 -85 -139 -246
-291 -577 -407 -885 -43 -114 -137 -398 -159 -478 -57 -214 -100 -390 -129
-537 -42 -214 -43 -214 -55 -306 -6 -41 -12 -84 -14 -95 -2 -10 -9 -62 -15
-114 -7 -52 -14 -108 -16 -125 -2 -16 -7 -68 -10 -115 -4 -47 -8 -95 -10 -108
-19 -118 -26 -796 -12 -1047 23 -388 61 -689 138 -1070 29 -145 103 -443 135
-548 78 -255 198 -583 276 -757 16 -36 41 -92 56 -125 44 -99 206 -414 261
-508 28 -49 51 -93 51 -98 0 -5 3 -9 8 -9 4 0 16 -18 26 -40 10 -22 26 -47 35
-57 10 -10 20 -26 24 -35 7 -19 205 -320 216 -328 4 -3 29 -38 56 -79 28 -40
57 -78 66 -85 9 -6 17 -15 17 -21 1 -5 10 -21 21 -35 97 -122 217 -270 239
-295 15 -17 56 -64 92 -105 35 -41 71 -82 80 -91 8 -9 82 -86 164 -172 82 -87
154 -154 160 -150 6 3 8 3 4 -2 -4 -4 16 -30 45 -58 28 -27 77 -74 108 -103
31 -30 62 -54 70 -54 7 0 10 -3 6 -6 -3 -3 29 -36 71 -72 42 -37 79 -69 82
-72 9 -9 114 -96 176 -146 124 -99 138 -109 146 -106 4 1 8 -2 8 -7 0 -16 416
-311 439 -311 5 0 11 -4 13 -9 3 -10 159 -107 319 -199 246 -142 608 -314 864
-411 61 -23 119 -46 130 -51 33 -14 287 -100 325 -110 19 -4 73 -20 120 -33
146 -44 342 -93 485 -122 222 -45 366 -69 535 -90 19 -2 51 -7 70 -10 50 -7
149 -17 310 -30 315 -26 964 -26 1225 0 22 2 72 6 112 10 67 5 345 39 423 51
19 3 89 14 155 26 66 11 126 21 133 21 6 0 12 4 12 8 0 5 6 6 13 4 9 -4 187
35 410 90 177 43 629 192 772 254 11 5 76 33 145 62 139 59 403 185 525 252
141 76 220 121 225 126 3 4 19 13 35 21 17 8 35 18 40 23 6 4 69 44 140 89 72
45 132 86 133 90 2 4 10 8 18 8 8 0 14 3 14 8 0 4 16 16 35 26 19 11 35 22 35
26 0 4 10 11 23 17 19 9 272 196 332 245 11 9 65 54 120 99 283 233 642 581
880 853 33 38 65 74 70 80 6 6 33 38 60 71 28 33 52 62 55 65 33 30 290 376
290 389 0 6 4 11 8 11 8 0 121 160 131 185 2 6 7 12 10 15 4 3 38 55 76 115
37 61 75 121 84 135 9 14 21 34 27 45 6 11 39 70 73 130 135 239 319 636 413
890 52 139 169 499 183 565 2 8 17 67 34 130 16 63 32 126 35 140 3 14 16 78
30 142 24 107 67 355 80 453 23 169 36 282 41 355 4 47 8 96 11 110 24 154 24
1057 -1 1220 -2 14 -6 61 -10 105 -8 103 -22 231 -41 365 -13 88 -56 341 -69
400 -8 36 -17 76 -19 90 -12 71 -92 380 -137 526 -49 162 -163 487 -199 569
-10 22 -37 85 -60 140 -49 114 -214 453 -261 535 -17 30 -43 77 -58 103 -37
68 -37 69 -126 211 -44 70 -85 135 -90 144 -73 117 -285 412 -297 412 -4 0 -8
5 -8 11 0 9 -174 233 -215 275 -5 6 -32 37 -60 70 -73 86 -122 141 -190 212
-33 35 -64 70 -68 78 -5 8 -13 12 -18 8 -5 -3 -8 0 -7 8 2 7 -4 12 -12 10 -8
-2 -12 -1 -8 3 8 8 -37 60 -52 60 -6 0 -10 4 -9 8 2 14 -53 67 -68 67 -8 0
-12 4 -9 9 3 4 -18 30 -47 56 -28 26 -84 77 -122 114 -83 78 -179 164 -291
258 -128 108 -158 131 -318 251 -83 61 -156 116 -161 120 -39 32 -440 292
-450 292 -1 0 -32 18 -68 39 -310 189 -802 412 -1214 550 -224 76 -615 182
-763 207 -14 3 -59 11 -100 19 -98 20 -103 21 -190 35 -41 6 -86 13 -100 16
-111 18 -365 47 -525 59 -49 4 -110 9 -135 11 -51 5 -767 13 -772 9z m672
-1809 c19 -2 80 -7 135 -11 55 -4 107 -8 115 -10 8 -1 40 -6 70 -9 30 -4 73
-9 95 -12 579 -72 1288 -311 1790 -604 50 -29 95 -53 102 -53 7 0 10 -3 8 -7
-2 -4 8 -13 23 -19 52 -24 420 -278 495 -342 12 -11 51 -42 87 -70 75 -60 170
-143 283 -249 44 -41 84 -74 88 -73 5 2 8 -1 6 -5 -3 -11 86 -97 98 -94 5 2 7
0 3 -4 -4 -4 24 -39 62 -78 88 -90 114 -120 210 -233 43 -50 81 -89 86 -85 4
4 4 2 1 -4 -3 -6 2 -20 12 -30 40 -44 216 -284 295 -402 236 -357 445 -787
565 -1162 19 -58 38 -114 42 -125 25 -60 110 -416 139 -580 5 -33 12 -71 15
-85 11 -58 27 -184 40 -315 4 -38 9 -78 11 -89 8 -42 18 -344 18 -526 -1 -237
-12 -447 -34 -635 -8 -73 -56 -380 -65 -420 -1 -5 -5 -28 -10 -50 -9 -49 -35
-158 -70 -290 -32 -124 -26 -105 -59 -205 -16 -47 -29 -89 -31 -95 -1 -5 -5
-19 -9 -30 -5 -11 -23 -63 -42 -115 -19 -52 -41 -108 -48 -125 -8 -16 -24 -56
-37 -89 -22 -53 -196 -411 -218 -446 -5 -8 -46 -77 -90 -152 -78 -131 -121
-197 -220 -338 -46 -66 -170 -231 -180 -240 -3 -3 -24 -27 -46 -55 -22 -27
-44 -55 -50 -61 -5 -6 -32 -38 -60 -69 -102 -118 -281 -304 -422 -437 -39 -36
-68 -69 -65 -73 4 -4 2 -5 -4 -3 -9 2 -86 -58 -143 -113 -9 -8 -50 -42 -91
-75 -41 -32 -77 -61 -80 -65 -3 -3 -32 -25 -65 -50 -33 -24 -64 -48 -70 -52
-65 -52 -379 -257 -394 -257 -5 0 -11 -4 -13 -8 -8 -18 -388 -216 -563 -292
-11 -5 -36 -16 -55 -24 -112 -49 -483 -178 -549 -191 -9 -2 -16 -4 -16 -5 0
-1 -7 -3 -15 -5 -8 -2 -78 -19 -155 -38 -127 -32 -251 -59 -330 -71 -16 -2
-59 -9 -95 -15 -95 -15 -187 -27 -285 -37 -33 -3 -73 -7 -90 -9 -16 -2 -100
-7 -185 -11 -299 -15 -676 -7 -905 20 -27 3 -72 8 -100 11 -87 10 -257 35
-332 50 -39 8 -88 18 -109 21 -21 3 -48 10 -61 15 -13 5 -23 7 -23 4 0 -2 -15
1 -32 6 -18 5 -45 12 -60 14 -44 8 -326 91 -408 119 -41 15 -79 28 -85 30 -5
2 -19 7 -30 11 -11 4 -69 27 -130 50 -156 61 -389 169 -488 227 -26 15 -47 25
-47 21 0 -3 -8 0 -17 8 -16 13 -43 29 -106 62 -26 14 -47 28 -180 114 -53 35
-102 63 -107 63 -6 0 -10 4 -10 8 0 4 -14 16 -30 26 -59 34 -385 283 -446 341
-6 5 -49 44 -95 85 -45 41 -101 93 -124 115 -23 22 -70 66 -103 98 -33 31 -59
57 -57 57 1 0 -25 28 -59 63 -77 80 -180 195 -241 270 -26 31 -52 57 -57 57
-5 0 -7 4 -4 8 3 5 -6 20 -19 34 -32 34 -140 177 -195 258 -25 36 -47 67 -50
70 -3 3 -11 14 -18 25 -34 54 -52 81 -59 90 -5 6 -35 55 -68 110 -33 55 -63
102 -67 103 -5 2 -8 10 -8 18 0 8 -12 33 -26 56 -52 82 -217 424 -258 536 -8
20 -24 62 -35 92 -148 378 -272 907 -306 1300 -3 36 -8 85 -10 110 -24 219
-24 838 -1 980 3 14 7 59 11 100 7 80 7 81 30 240 62 437 194 903 360 1275 59
131 69 154 126 268 33 64 70 135 84 157 14 22 25 42 25 45 0 11 100 171 203
325 70 105 232 326 252 345 6 6 38 44 71 85 32 41 66 81 74 90 8 9 49 54 90
100 41 46 94 102 117 124 23 22 39 45 36 51 -4 5 -3 7 2 3 4 -4 33 19 64 50
139 139 375 348 500 442 18 14 56 43 85 65 52 41 153 112 184 130 9 6 19 12
22 15 6 7 94 64 185 121 39 24 73 48 77 54 4 5 8 7 8 2 0 -4 18 4 39 17 104
66 360 194 531 265 69 29 136 57 150 63 162 68 618 203 785 232 17 3 64 12
105 21 41 8 95 17 120 20 25 3 56 8 69 10 13 2 45 7 70 11 25 3 57 8 71 10 14
2 56 6 95 10 38 3 81 7 95 10 14 2 86 6 160 10 74 4 136 7 138 9 4 4 555 -5
592 -9z"/>
<path d="M7055 11982 c-69 -7 -129 -45 -176 -112 -21 -30 -24 -46 -24 -115 0
-69 3 -85 25 -115 29 -42 70 -80 87 -80 6 0 13 -5 15 -11 2 -6 31 -13 64 -16
60 -5 122 7 152 31 23 18 77 77 77 84 0 4 4 13 8 20 17 25 21 74 14 134 -8 64
-82 150 -142 164 -5 2 -23 6 -40 11 -16 5 -43 7 -60 5z"/>
<path d="M6879 11328 c-1 -18 -1 -740 0 -755 1 -9 19 -13 56 -13 l55 0 0 230
c0 150 4 230 10 230 6 0 13 -13 17 -30 3 -16 8 -30 12 -30 4 0 7 -8 7 -17 1
-17 81 -269 108 -343 13 -34 15 -35 75 -38 l61 -3 0 63 c1 101 1 514 0 621 l0
97 -57 0 -58 0 1 -245 c0 -135 -3 -245 -7 -245 -5 0 -13 17 -18 38 -6 20 -39
130 -72 245 l-62 207 -64 0 c-43 0 -63 -4 -64 -12z"/>
<path d="M7070 10434 c0 -5 -4 -36 -10 -69 -5 -33 -12 -78 -15 -100 -4 -22
-12 -78 -20 -125 -8 -47 -16 -101 -19 -120 -3 -19 -12 -75 -20 -125 -8 -49
-18 -110 -21 -135 -3 -25 -10 -67 -15 -95 -10 -54 -20 -122 -25 -170 -2 -16
-4 -30 -5 -30 -2 0 -7 -27 -13 -72 -3 -21 -22 -139 -42 -263 -33 -213 -39
-252 -49 -317 -2 -16 -13 -84 -24 -153 -12 -69 -24 -143 -27 -165 -3 -22 -17
-108 -30 -192 -14 -83 -27 -167 -29 -185 -5 -37 -7 -51 -41 -263 -14 -82 -36
-224 -50 -315 -14 -91 -28 -176 -30 -189 -2 -13 -7 -45 -11 -70 -7 -47 -10
-68 -18 -111 -24 -122 -24 -129 2 -280 28 -164 42 -256 48 -305 3 -22 7 -47 9
-55 2 -8 23 -132 45 -275 23 -143 43 -271 45 -285 2 -14 22 -142 44 -285 23
-143 45 -285 51 -315 13 -75 18 -105 25 -170 4 -30 8 -57 10 -60 2 -3 6 -30
10 -60 3 -29 8 -56 9 -59 2 -3 7 -31 11 -61 3 -30 8 -62 10 -70 2 -8 7 -35 10
-60 4 -25 20 -126 36 -225 16 -99 32 -198 34 -220 3 -22 12 -78 20 -126 8 -47
17 -98 19 -115 7 -51 25 -165 45 -294 11 -69 23 -145 26 -170 4 -25 8 -46 9
-47 1 -1 15 80 30 180 16 100 30 191 33 202 2 11 6 38 9 60 5 37 60 379 69
434 2 13 7 45 11 70 4 25 8 55 10 66 2 11 7 40 10 65 3 25 8 54 10 65 2 11 6
36 9 55 3 19 7 46 10 60 2 13 7 42 10 65 4 22 15 95 26 162 11 68 22 140 24
160 3 21 7 49 10 63 4 20 63 392 89 563 10 64 17 109 22 131 2 11 11 68 19
126 9 58 18 114 20 125 3 11 7 37 10 58 9 64 16 109 35 227 10 63 18 122 19
130 0 8 4 35 10 60 5 25 12 65 15 90 3 25 11 72 17 105 15 82 15 90 0 175 -7
41 -15 82 -16 90 -1 8 -6 40 -10 70 -4 30 -9 64 -11 75 -3 11 -8 47 -14 80
-30 197 -52 340 -65 415 -8 47 -17 103 -20 125 -4 22 -11 69 -17 105 -5 36
-12 79 -14 95 -8 50 -44 278 -49 305 -3 14 -7 41 -9 60 -3 19 -7 50 -10 68
-13 71 -16 91 -30 182 -8 52 -24 156 -36 230 -12 74 -23 151 -26 170 -2 19
-13 87 -24 150 -11 63 -22 133 -25 155 -7 43 -37 234 -60 380 -8 50 -22 135
-30 190 -9 55 -18 111 -20 125 -4 23 -13 84 -31 195 -5 37 -14 60 -14 39z
m138 -3028 c234 -83 339 -360 220 -578 -23 -43 -111 -138 -128 -138 -5 0 -15
-7 -23 -14 -46 -46 -219 -68 -311 -41 -214 65 -336 279 -281 490 9 33 27 79
41 102 28 48 122 143 141 143 7 0 13 4 13 8 0 7 34 19 120 43 37 10 162 1 208
-15z"/>
<path d="M2750 7470 c-5 -3 5 -86 21 -185 17 -99 35 -207 40 -240 24 -146 29
-175 43 -254 8 -45 17 -86 20 -89 5 -4 58 -6 95 -3 10 1 17 29 27 106 13 109
41 286 47 291 3 3 10 -28 16 -68 6 -40 16 -98 21 -128 5 -30 12 -73 15 -95 13
-99 15 -103 48 -107 41 -4 82 4 82 17 0 6 6 46 13 90 12 77 49 314 57 365 2
14 13 85 25 158 12 73 19 136 16 140 -4 3 -31 6 -60 6 l-54 1 -17 -125 c-22
-166 -26 -198 -30 -218 -2 -9 -4 -26 -5 -37 -2 -43 -17 12 -30 110 -7 55 -14
109 -16 120 -4 21 -12 70 -19 120 -5 29 -6 30 -65 30 l-59 0 -5 -35 c-3 -19
-8 -55 -11 -80 -8 -61 -17 -132 -20 -150 -2 -8 -6 -39 -10 -67 -8 -61 -20 -69
-23 -16 -2 20 -5 40 -8 45 -3 5 -7 30 -10 56 -4 47 -11 101 -18 137 -2 11 -6
40 -10 65 l-6 45 -51 0 c-28 0 -54 -2 -59 -5z"/>
<path d="M11004 7469 c-2 -3 -3 -179 -3 -390 l0 -384 159 0 c87 0 162 3 165 7
10 9 13 98 4 104 -4 2 -49 5 -100 5 -50 0 -97 3 -103 5 -7 3 -11 40 -10 107
l0 102 62 2 c34 1 70 2 80 2 14 1 17 10 17 56 0 30 -4 55 -10 56 -5 0 -41 1
-80 2 l-70 2 0 105 1 105 109 5 110 5 -1 45 c-1 25 -2 50 -3 55 -1 11 -320 15
-327 4z"/>
<path d="M2305 7254 c-22 -8 -55 -29 -74 -47 -150 -143 -52 -392 154 -390 165
1 271 163 206 315 -19 46 -76 103 -118 119 -44 17 -126 18 -168 3z"/>
<path d="M11699 7260 c-169 -49 -218 -264 -87 -386 99 -92 259 -73 335 40 40
59 49 105 35 175 -14 65 -48 112 -108 147 -48 28 -124 39 -175 24z"/>
<path d="M6994 3492 c-65 -31 -89 -79 -88 -177 0 -73 3 -84 31 -125 18 -25 70
-82 117 -127 92 -88 116 -135 97 -187 -14 -35 -55 -60 -86 -52 -29 7 -65 60
-65 94 0 22 -3 23 -52 20 -50 -3 -53 -5 -56 -31 -5 -38 40 -127 77 -155 54
-40 144 -47 209 -16 18 8 45 34 60 57 23 36 27 52 27 117 -1 93 -15 118 -137
239 -92 91 -108 119 -108 181 0 43 29 80 62 80 25 0 68 -44 68 -70 0 -22 11
-24 73 -14 31 6 37 11 37 31 0 36 -34 95 -70 122 -45 33 -139 39 -196 13z"/>
<path d="M7007 2593 c-132 -39 -196 -196 -132 -318 44 -82 103 -118 195 -119
102 -1 168 40 212 133 80 173 -89 360 -275 304z"/>
</g>
</svg>
