<?xml version="1.0" standalone="no"?>
<!DOCTYPE svg PUBLIC "-//W3C//DTD SVG 1.1//EN" "http://www.w3.org/Graphics/SVG/1.1/DTD/svg11.dtd" >
<svg xmlns="http://www.w3.org/2000/svg">
<metadata></metadata>
<defs>
<font id="andesregular" horiz-adv-x="258" >
<font-face units-per-em="2048" ascent="1638" descent="-410" />
<missing-glyph horiz-adv-x="450" />
<glyph horiz-adv-x="0" />
<glyph unicode="&#xd;" horiz-adv-x="450" />
<glyph unicode=" "  horiz-adv-x="450" />
<glyph unicode="&#x09;" horiz-adv-x="450" />
<glyph unicode="&#xa0;" horiz-adv-x="450" />
<glyph unicode="!" d="M45 84q0 31 24.5 57.5t59.5 26.5q39 0 61.5 -22.5t22.5 -61.5q0 -31 -24.5 -57.5t-59.5 -26.5q-31 0 -55.5 25.5t-28.5 58.5zM59 1536h148l-21 -1268h-108z" />
<glyph unicode="$" horiz-adv-x="512" d="M45 162v125h152q66 0 105.5 45t39.5 102q0 20 -10 58l-248 544q-23 45 -23 101q0 74 40.5 135t101.5 90v174h108v-150h127v-124h-127q-53 0 -88 -37t-35 -88q0 -33 9 -50l245 -540q25 -49 25 -113q0 -84 -40 -147.5t-116 -100.5v-186h-108v162h-158z" />
<glyph unicode="&#x26;" horiz-adv-x="1005" d="M45 578q0 193 111.5 343t289.5 205q-51 70 -51 152q0 98 74 174t174 76h37v-127h-37q-47 0 -85 -36t-38 -87q0 -49 37 -90q39 -35 86 -35h82v203h125v-203h111v-123h-111v-1030h-227q-119 0 -222.5 45t-181.5 124t-129 187q-45 109 -45 222zM172 578q0 -190 134 -320.5 t317 -130.5h102v903h-102q-188 0 -319.5 -135t-131.5 -317z" />
<glyph unicode="(" horiz-adv-x="514" d="M45 774q0 125 26.5 250t107.5 305t206 289l84 -96q-121 -104 -209 -323.5t-88 -424.5q0 -72 3 -101.5t16.5 -108.5t82 -257t195.5 -287l-84 -96q-123 115 -205 293t-108.5 300t-26.5 257z" />
<glyph unicode=")" horiz-adv-x="473" d="M45 20q121 102 210 325.5t89 428.5q0 193 -86 416t-213 332l82 96q121 -102 231.5 -345t110.5 -499q0 -264 -105.5 -499.5t-236.5 -350.5z" />
<glyph unicode="," d="M45 82q0 31 25.5 57.5t58.5 28.5q31 0 57.5 -24.5t26.5 -61.5q0 -18 -12 -41l-86 -147l-49 26l47 80q-68 12 -68 82z" />
<glyph unicode="-" horiz-adv-x="442" d="M45 852h324l28 -127h-323z" />
<glyph unicode="." d="M45 86q0 31 24.5 57.5t59.5 26.5q39 0 61.5 -22.5t22.5 -61.5q0 -31 -24.5 -57.5t-59.5 -26.5q-31 0 -55.5 25.5t-28.5 58.5z" />
<glyph unicode="0" horiz-adv-x="1695" d="M45 772q0 160 61.5 310.5t173 260t261 172t307.5 62.5q164 0 311.5 -62.5t256 -169t172 -259t63.5 -314.5t-62.5 -309.5t-172 -257t-257 -173t-311.5 -63.5q-160 0 -306.5 61.5t-258 174t-175 259t-63.5 308.5zM172 772q0 -291 200.5 -484.5t475.5 -193.5 q289 0 434 152.5t194.5 278.5t49.5 247q0 289 -202 483.5t-476 194.5q-289 0 -482.5 -200.5t-193.5 -477.5z" />
<glyph unicode="1" horiz-adv-x="352" d="M45 1329v121l262 88v-1538h-127v1374z" />
<glyph unicode="2" horiz-adv-x="968" d="M45 1126q0 178 124 305.5t310 127.5q117 0 216.5 -56.5t157.5 -157t58 -219.5q0 -133 -73 -243l-527 -756h613v-127h-854l665 956q51 78 51 170q0 129 -88 218.5t-219 89.5q-141 0 -224 -95.5t-83 -212.5q0 -141 95 -224t212 -83q61 0 115 23l-102 -150h-13 q-178 0 -306 130t-128 304z" />
<glyph unicode="3" horiz-adv-x="983" d="M45 57l59 111q115 -66 240 -66t232.5 61.5t171 171t63.5 234.5q0 127 -62.5 233.5t-171 170t-233.5 63.5h-117l285 375h-319v127h567l-293 -389q133 -29 240.5 -112t169 -205.5t61.5 -262.5q0 -158 -80 -296t-216 -218t-298 -80t-299 82z" />
<glyph unicode="4" horiz-adv-x="942" d="M45 383l672 1161v-1036h180v-125h-180v-383h-127v383h-545zM262 508h328v565z" />
<glyph unicode="5" horiz-adv-x="909" d="M45 53l57 111q84 -37 181 -37q199 0 326.5 137t127.5 318q0 190 -136 322t-318 132q-84 1 -168 -30l69 530h496v-125h-385l-33 -250h21q121 0 229.5 -46t182 -121.5t121.5 -186.5t48 -225q0 -156 -76.5 -290t-212 -213t-292.5 -79q-131 0 -238 53z" />
<glyph unicode="6" horiz-adv-x="1261" d="M45 571q0 188 111 347l491 651l103 -74l-271 -358q33 8 74 14t78 6q156 0 291 -80t215 -214t80 -292q0 -154 -79 -287.5t-214.5 -215.5t-292.5 -82q-164 0 -294 77.5t-211 215t-81 292.5zM172 571q0 -131 62.5 -234.5t169 -163.5t227.5 -60q131 0 233.5 61.5t164 168 t61.5 228.5q0 133 -63.5 234.5t-170 163t-225.5 61.5q-131 0 -235.5 -62.5t-164 -170t-59.5 -226.5z" />
<glyph unicode="7" horiz-adv-x="731" d="M45 1411v125h641l-498 -1536l-120 39l444 1372h-467z" />
<glyph unicode="8" horiz-adv-x="1177" d="M45 545q0 61 8 108t42 124t108 151t176 119q-96 90 -96 223q0 127 90 217t217 90q86 0 153 -43q68 -39 111 -108.5t43 -155.5q0 -133 -98 -223q152 -61 243 -198.5t91 -303.5q0 -221 -160 -383t-383 -162q-221 0 -383 159.5t-162 385.5zM172 545q0 -188 131 -303 t287 -115q190 0 304 131t114 287q0 176 -121 297t-297 121q-190 0 -304 -132.5t-114 -285.5zM408 1270q0 -76 55 -131q57 -51 127 -52q74 0 127 55.5t53 127.5q0 74 -51 127t-129 53q-76 0 -129 -55.5t-53 -124.5z" />
<glyph unicode="9" horiz-adv-x="1261" d="M45 991q0 158 79 292t213 214t294 80q156 0 291 -80t215 -214t80 -292q0 -182 -111 -346l-563 -668l-101 76l312 369q-70 -16 -123 -16q-164 0 -295 78.5t-211 214t-80 292.5zM172 991q0 -131 62.5 -234.5t169 -164t227.5 -60.5q131 0 233.5 61.5t164 168t61.5 229.5 q0 133 -63.5 234.5t-170 163t-225.5 61.5q-70 0 -124 -14.5t-133 -63.5t-140.5 -156.5t-61.5 -224.5z" />
<glyph unicode=":" d="M45 84q0 31 24.5 57.5t59.5 26.5q39 0 61.5 -22.5t22.5 -61.5q0 -31 -24.5 -57.5t-59.5 -26.5q-31 0 -55.5 25.5t-28.5 58.5zM45 393q0 31 25.5 56.5t58.5 27.5q31 0 57.5 -24.5t26.5 -59.5q0 -31 -24.5 -57.5t-59.5 -26.5q-31 0 -55.5 25.5t-28.5 58.5z" />
<glyph unicode=";" d="M45 82q0 31 25.5 57.5t58.5 28.5q31 0 57.5 -24.5t26.5 -61.5q0 -18 -12 -41l-86 -147l-49 26l47 80q-68 12 -68 82zM45 393q0 31 25.5 56.5t58.5 27.5q31 0 57.5 -24.5t26.5 -59.5q0 -31 -24.5 -57.5t-59.5 -26.5q-31 0 -55.5 25.5t-28.5 58.5z" />
<glyph unicode="?" horiz-adv-x="739" d="M45 84q0 31 24.5 57.5t59.5 26.5q39 0 61.5 -22.5t22.5 -61.5q0 -31 -24.5 -57.5t-59.5 -26.5q-31 0 -55.5 25.5t-28.5 58.5zM66 276v125q135 0 251.5 68t184 185.5t67.5 250.5q0 139 -67.5 254t-186 182.5t-249.5 67.5v127q72 0 127 -10t140 -46t175 -126t138 -204 t48 -245q0 -170 -84 -312t-228 -229.5t-316 -87.5z" />
<glyph unicode="A" horiz-adv-x="1114" d="M45 678q0 129 64.5 238.5t174 172t236.5 62.5l23 2v133q0 109 74.5 186.5t187.5 77.5q61 0 104 -19.5t81 -56t58.5 -84t20.5 -104.5v-1286h-125v1030h-276v-670q51 23 100 72l84 -92q-68 -70 -184 -115v-362l-125 -123v463h-23q-127 0 -235.5 61.5t-157.5 144.5 t-65.5 142t-16.5 127zM172 678q0 -141 101.5 -245.5t246.5 -104.5h23v702h-23q-53 0 -94 -10t-100.5 -46t-106.5 -120t-47 -176zM668 1153h276v133q0 55 -36 98t-103 43q-55 0 -98 -36q-39 -39 -39 -105v-133z" />
<glyph unicode="B" horiz-adv-x="1521" d="M45 963q0 168 82 308t222 223t306 83h133q70 0 127.5 -34t93 -93t35.5 -129q0 -88 -57 -158q215 -63 352.5 -245.5t137.5 -413.5q0 -184 -92.5 -344t-252 -252t-344.5 -92q-164 0 -309 74.5t-239 199.5l102 72q23 -31 75 -79t159.5 -94t211.5 -46q233 0 352.5 116.5 t165.5 225t46 219.5q0 150 -75 279.5t-207 205.5t-284 76v-571q78 18 150 69l72 -102q-96 -68 -222 -96v-222l-127 -112v319q-125 0 -234.5 45t-197.5 133t-137 201q-45 117 -45 234zM172 963q0 -215 150.5 -351.5t336.5 -136.5v973q-215 0 -351 -150.5t-136 -334.5z M786 1186q55 0 94.5 39t39.5 92q0 55 -38 93t-96 38v-262z" />
<glyph unicode="C" horiz-adv-x="974" d="M45 692q0 176 68.5 340t187.5 285t286 190.5t343 69.5v-127q-324 0 -541 -226.5t-217 -531.5q0 -324 225.5 -542t532.5 -218v-125q-242 0 -441.5 117t-321.5 323t-122 445z" />
<glyph unicode="D" horiz-adv-x="1656" d="M45 922q0 168 82 308t222 223t306 83h82q178 0 338 -67.5t281 -188.5t188.5 -281.5t67.5 -339.5q0 -178 -65.5 -335.5t-184.5 -279.5t-284 -191.5t-341 -69.5q-315 0 -553 197l84 96q203 -166 469 -166q332 0 541 230.5t209 518.5q0 330 -175 490t-287 209t-239 49v-954 q78 18 150 69l72 -102q-96 -68 -222 -96v-222l-127 -112v319q-168 0 -306 80t-223 224.5t-85 308.5zM172 922q0 -215 150.5 -351.5t336.5 -136.5v973q-215 0 -351 -150.5t-136 -334.5z" />
<glyph unicode="E" horiz-adv-x="1036" d="M45 678q0 129 64.5 238.5t174 172t236.5 62.5l23 2v383h411v-125h-286v-258h280l43 -123h-323v-670q51 23 100 72l84 -92q-74 -76 -176 -113q12 -98 76 -176q76 -102 202 -162v-135q-133 47 -254.5 164t-148.5 285h-31q-127 0 -235.5 61.5t-157.5 144.5t-65.5 142 t-16.5 127zM172 678q0 -141 101.5 -245.5t246.5 -104.5h23v702h-23q-53 0 -94 -10t-100.5 -46t-106.5 -120t-47 -176z" />
<glyph unicode="F" horiz-adv-x="1036" d="M45 678q0 129 64.5 238.5t174 172t236.5 62.5l23 2v383h411v-125h-286v-258h280l43 -123h-323v-670q51 23 100 72l84 -92q-74 -76 -176 -113l-8 -2v-362l-125 -123v463h-23q-127 0 -235.5 61.5t-157.5 144.5t-65.5 142t-16.5 127zM172 678q0 -141 101.5 -245.5 t246.5 -104.5h23v702h-23q-53 0 -94 -10t-100.5 -46t-106.5 -120t-47 -176z" />
<glyph unicode="G" horiz-adv-x="991" d="M45 692q0 176 68.5 340t187.5 285t286 190.5t343 69.5h16v-125l-16 -2q-324 0 -541 -226.5t-217 -531.5q0 -324 206 -519.5t441 -231.5v1249h127v-1383h-16q-242 0 -441.5 117t-321.5 323t-122 445z" />
<glyph unicode="H" horiz-adv-x="1122" d="M45 678q0 129 64.5 238.5t174 172t236.5 62.5l23 2v383h125v-383h282v383h127v-1536h-127v1030h-282v-670q51 23 100 72l84 -92q-74 -76 -176 -113l-8 -2v-362l-125 -123v463h-23q-127 0 -235.5 61.5t-157.5 144.5t-65.5 142t-16.5 127zM172 678q0 -141 101.5 -245.5 t246.5 -104.5h23v702h-23q-53 0 -94 -10t-100.5 -46t-106.5 -120t-47 -176z" />
<glyph unicode="I" horiz-adv-x="905" d="M45 1020q0 215 150.5 365.5t365.5 150.5h152v-877q49 23 73 43l74 -104q-61 -41 -147 -72v-663l-125 -123v764h-27q-215 0 -365.5 149.5t-150.5 366.5zM172 1020q0 -174 119 -281.5t270 -107.5h27v780h-27q-172 0 -280.5 -120t-108.5 -271z" />
<glyph unicode="J" horiz-adv-x="905" d="M45 1020q0 215 150.5 365.5t365.5 150.5h152v-877q49 23 73 43l74 -104q-61 -41 -147 -72v-276q0 -182 -128 -306t-278 -190v135q141 82 211 159t70 202v254h-27q-215 0 -365.5 149.5t-150.5 366.5zM172 1020q0 -174 119 -281.5t270 -107.5h27v780h-27 q-172 0 -280.5 -120t-108.5 -271z" />
<glyph unicode="K" horiz-adv-x="1298" d="M45 942q0 158 80 294t215 218t299 82h96v-356l305 356h168l-342 -399l387 -1137h-135l-383 1130v-643q72 12 152 62l41 -123q-96 -53 -193 -68v-491l-127 -123v606q-115 0 -214 48t-224 180.5t-125 363.5zM172 942q0 -180 94 -283.5t172 -142.5t170 -39v932 q-88 0 -164.5 -38t-174 -142.5t-97.5 -286.5z" />
<glyph unicode="L" horiz-adv-x="1044" d="M45 956q0 158 77 290t213 211t288 79h102v-1020q55 12 123 49l49 -116q-78 -39 -172 -60v-262h274v-127h-401v379q-113 0 -211 46t-220 173t-122 358zM172 956q0 -195 100.5 -291t170 -127.5t155.5 -31.5v903q-86 0 -162 -36t-170 -134t-94 -283z" />
<glyph unicode="M" horiz-adv-x="1478" d="M45 901q0 180 85 327.5t199.5 218.5t194.5 96.5t164 25.5l227 -512l230 510l289 -1567h-129l-211 1145l-176 -395l-177 395l-141 -774q31 -6 49.5 -8.5t63.5 -2.5q233 0 393 168l53 64l29 -160q-92 -92 -183.5 -131t-160 -53.5t-131.5 -14.5q-80 0 -135 15l-70 -367 l-148 -96l95 502q-182 80 -296 247.5t-114 366.5zM172 901q0 -233 117 -342.5t188 -144.5l191 1028q-98 0 -183.5 -43t-199 -161t-113.5 -337z" />
<glyph unicode="N" horiz-adv-x="1193" d="M45 942q0 156 72.5 288t173 195.5t170 87t147.5 23.5h31h53l332 -242v242h125v-1536h-125v1153l-332 240v-914q102 12 180 60l50 -115q-100 -55 -230 -72v-499l-125 -123v624q-143 18 -264 101.5t-189.5 211.5t-68.5 275zM172 942q0 -172 111.5 -302t283.5 -159v924 q-170 -25 -282.5 -156t-112.5 -307z" />
<glyph unicode="O" horiz-adv-x="1695" d="M45 772q0 160 61.5 310.5t173 260t261 172t307.5 62.5q164 0 311.5 -62.5t256 -169t172 -259t63.5 -314.5t-62.5 -309.5t-172 -257t-257 -173t-311.5 -63.5q-160 0 -306.5 61.5t-258 174t-175 259t-63.5 308.5zM172 772q0 -291 200.5 -484.5t475.5 -193.5 q289 0 434 152.5t194.5 278.5t49.5 247q0 289 -202 483.5t-476 194.5q-289 0 -482.5 -200.5t-193.5 -477.5z" />
<glyph unicode="P" horiz-adv-x="1318" d="M45 1028q0 205 105.5 314.5t192.5 151.5t185 42h25h90h12q166 0 307.5 -85t226.5 -231.5t85 -314.5q0 -125 -46 -238.5t-132 -199.5t-201 -138.5t-240 -52.5v-426l-127 -122v794q-68 0 -122 17.5t-142 71t-153.5 170t-65.5 247.5zM172 1028q0 -154 81 -236.5t142 -113.5 t133 -31v762q-147 0 -251.5 -116.5t-104.5 -264.5zM655 401q104 0 190.5 38t194 150.5t107.5 315.5q0 209 -107.5 318.5t-193.5 147.5t-191 38v-747q125 37 207 145l96 -78q-117 -154 -303 -197v-131z" />
<glyph unicode="Q" horiz-adv-x="1695" d="M45 772q0 160 61.5 310.5t173 260t261 172t307.5 62.5q164 0 311.5 -62.5t256 -169t172 -259t63.5 -314.5q0 -188 -81 -352t-229 -281q129 -113 318.5 -198.5t505.5 -85.5v-127q-223 0 -391 44t-265.5 100t-156 98.5t-119.5 97.5q-172 -98 -385 -99q-160 0 -306.5 61.5 t-258 174t-175 259t-63.5 308.5zM172 772q0 -291 200.5 -484.5t475.5 -193.5q156 0 289 64l-146 151l-98 101l88 90l63 -64l70 -71l135 -140q20 16 39 31.5t79 79t109.5 189.5t49.5 247q0 289 -202 483.5t-476 194.5q-289 0 -482.5 -200.5t-193.5 -477.5z" />
<glyph unicode="R" horiz-adv-x="1318" d="M45 1028q0 205 105.5 314.5t192.5 151.5t185 42h23h94h10q166 0 307.5 -85t226.5 -231.5t85 -314.5q0 -211 -123 -372.5t-322 -227.5l377 -305h-184l-367 293v-443l-127 -122v794q-68 0 -122 17.5t-142 71t-153.5 170t-65.5 247.5zM170 1028q0 -154 107.5 -261.5 t250.5 -119.5v762q-147 0 -252.5 -116.5t-105.5 -264.5zM655 401q104 0 190.5 38t195 152t108.5 314q0 209 -108.5 318.5t-194.5 147.5t-191 38v-747q125 33 207 145l96 -78q-117 -154 -303 -197v-131z" />
<glyph unicode="S" horiz-adv-x="753" d="M4 -131h254q137 0 230.5 96t93.5 230q0 104 -54 182l-428 647q-55 84 -55 184q0 135 96.5 231.5t231.5 96.5h196v-125h-196q-84 0 -146 -61q-55 -61 -55 -142q0 -59 31 -112l432 -654q74 -115 74 -247q0 -117 -59.5 -222.5t-165 -167t-226.5 -61.5h-254v125z" />
<glyph unicode="T" horiz-adv-x="1073" d="M45 948q0 162 79 294t213 212t294 80l397 2v-125h-223v-891q61 25 123 74l69 -107q-88 -66 -192 -100v-524l-125 -123v622l-49 -2q-164 0 -294 78t-211 215.5t-81 294.5zM172 948q0 -195 104.5 -296t188.5 -133t166 -32l49 2v922l-49 -2q-193 0 -326 -137t-133 -324z" />
<glyph unicode="U" horiz-adv-x="1122" d="M45 1030q0 133 67.5 252t183.5 186.5t253 67.5h102v-870q76 18 135 69l70 -104q-94 -66 -205 -94v-261q0 -63 45 -108q47 -41 105 -41q63 0 106 46t43 103v1260h127v-1260q0 -117 -79.5 -196.5t-196.5 -79.5t-197 80t-80 196v250q-68 0 -127 19.5t-143 74t-146.5 166 t-62.5 244.5zM172 1030q0 -152 78 -233.5t139.5 -111.5t134.5 -30v752q-141 0 -246.5 -111.5t-105.5 -265.5z" />
<glyph unicode="V" horiz-adv-x="1208" d="M45 1126q0 170 120 290t290 120h94l135 -573q29 43 45 98l45 -191l-33 -32l-22 -23l72 -299l241 1020h131l-370 -1577l-187 786q-87 -28 -147 -28h-4q-168 0 -289 119.5t-121 289.5zM172 1126q0 -117 84 -199.5t199 -82.5q70 0 123 26l-129 539q-115 0 -196 -83t-81 -200 z" />
<glyph unicode="W" horiz-adv-x="1693" d="M45 1126q0 170 120 290t290 120h94l135 -573q29 43 45 98l45 -191l-33 -32l-22 -23l72 -299l241 1020l244 -1020l242 1020h131l-371 -1577l-244 1028l-241 -1028l-187 786q-87 -28 -147 -28h-4q-168 0 -289 119.5t-121 289.5zM172 1126q0 -117 84 -199.5t199 -82.5 q70 0 123 26l-129 539q-115 0 -196 -83t-81 -200z" />
<glyph unicode="X" horiz-adv-x="1273" d="M45 897q0 246 166 428t407 207l31 2l33 2h68l122 -387l119 387h131l-186 -598l293 -938h-131l-228 727l-104 -336q84 14 156 55l36 -122q-61 -31 -116.5 -46.5t-116.5 -15.5l-119 -383l-172 -133l162 520q-236 35 -393.5 214t-157.5 417zM172 897q0 -111 48 -212 t145.5 -189t267.5 -107l172 549l-150 473q-205 0 -344 -160.5t-139 -353.5z" />
<glyph unicode="Y" horiz-adv-x="1216" d="M45 938q0 221 140.5 392t361.5 214l233 -332l236 324h155l-325 -453v-604q94 39 170 117l82 -96q-109 -109 -252 -152v-473l-127 -123v572l-55 -5q-123 0 -232.5 46.5t-201 135.5t-138.5 203.5t-47 233.5zM172 938q0 -211 148.5 -351.5t343.5 -140.5l55 3v632l-223 318 q-141 -47 -232.5 -179.5t-91.5 -281.5z" />
<glyph unicode="Z" horiz-adv-x="974" d="M45 1053q0 129 63.5 238.5t148.5 160.5t143.5 67.5t127.5 16.5h346l-229 -821q82 25 141 88l84 -94q-104 -104 -264 -136l-123 -446h447v-127h-613l160 571q-59 6 -111.5 24.5t-107.5 53.5q-96 66 -140 147t-58.5 135t-14.5 122zM172 1053q0 -143 73.5 -222t132 -108 t132.5 -29l201 717h-183q-92 0 -176 -47t-119.5 -108.5t-48 -106.5t-12.5 -96z" />
<glyph unicode="a" horiz-adv-x="727" d="M45 1153h111v133q0 109 74.5 186.5t187.5 77.5q61 0 104 -19.5t81 -56t58.5 -84t20.5 -104.5v-1286h-125v1030h-274v-1030h-127v1030h-70zM283 1153h274v133q0 55 -36 98t-103 43q-53 0 -94 -35.5t-41 -105.5v-133z" />
<glyph unicode="b" horiz-adv-x="802" d="M45 0v1536h129q70 0 127 -34t93 -93t36 -129q0 -102 -72 -168q172 -55 286 -211t114 -348q0 -158 -78 -284t-217 -197.5t-299 -71.5h-119zM172 127q133 0 234.5 53t163 149.5t61.5 223.5q0 121 -60.5 227.5t-170 173t-228.5 66.5v-893zM172 1145q57 0 96 39q37 37 37 92 t-38 93t-95 38v-262z" />
<glyph unicode="c" horiz-adv-x="892" d="M45 764q0 219 105.5 394t294 276.5t403.5 101.5v-127q-270 0 -415.5 -129t-203 -248t-57.5 -268q0 -168 85 -315.5t239.5 -234.5t351.5 -87v-125q-217 0 -403.5 98.5t-293 273.5t-106.5 390z" />
<glyph unicode="d" horiz-adv-x="1011" d="M45 0v1536h154q162 0 297 -57.5t244.5 -167t168 -247.5t58.5 -296q0 -160 -58.5 -297t-165 -243.5t-249.5 -167t-295 -60.5h-154zM172 127h27q274 0 411.5 143.5t183.5 266t46 231.5q0 137 -50.5 254t-137.5 204t-203.5 136t-249.5 49h-27v-1284z" />
<glyph unicode="e" horiz-adv-x="647" d="M45 1153h109v383h411v-125h-284v-258h278l43 -123h-321v-903h284v-127h-411v1030h-68z" />
<glyph unicode="f" horiz-adv-x="649" d="M45 1153h111v383h411v-125h-284v-258h278l43 -123h-321v-1030h-127v1030h-70z" />
<glyph unicode="g" horiz-adv-x="892" d="M45 768q0 158 60.5 296t165 244.5t212 152.5t176 60.5t154.5 14.5h35v-125h-35q-272 0 -456.5 -193.5t-184.5 -449.5q0 -274 170 -437t379 -200v1049h127v-1180h-35q-152 0 -297 62.5t-244.5 162t-163 243.5t-63.5 300z" />
<glyph unicode="h" horiz-adv-x="737" d="M45 1153h111v383h127v-383h282v383h127v-1536h-127v1030h-282v-1030h-127v1030h-70z" />
<glyph unicode="i" horiz-adv-x="217" d="M45 0v1536h127v-1536h-127z" />
<glyph unicode="j" horiz-adv-x="444" d="M45 0v127q102 31 165.5 118t63.5 193v973h-229v125h354v-1098q0 -162 -99 -281.5t-255 -156.5z" />
<glyph unicode="k" horiz-adv-x="735" d="M45 0v1536h127v-356l305 356h168l-342 -399l387 -1137h-135l-383 1130v-1130h-127z" />
<glyph unicode="l" horiz-adv-x="491" d="M45 0v1536h127v-1409h274v-127h-401z" />
<glyph unicode="m" horiz-adv-x="1122" d="M45 0l287 1569l227 -512l229 510l289 -1567h-129l-211 1145l-176 -395l-176 395l-211 -1145h-129z" />
<glyph unicode="n" horiz-adv-x="671" d="M45 0v1536h127l330 -242v242h125v-1536h-125v1153l-330 240v-1393h-127z" />
<glyph unicode="o" horiz-adv-x="1695" d="M45 772q0 160 61.5 310.5t173 260t261 172t307.5 62.5q164 0 311.5 -62.5t256 -169t172 -259t63.5 -314.5t-62.5 -309.5t-172 -257t-257 -173t-311.5 -63.5q-160 0 -306.5 61.5t-258 174t-175 259t-63.5 308.5zM172 772q0 -291 200.5 -484.5t475.5 -193.5 q289 0 434 152.5t194.5 278.5t49.5 247q0 289 -202 483.5t-476 194.5q-289 0 -482.5 -200.5t-193.5 -477.5z" />
<glyph unicode="p" horiz-adv-x="835" d="M45 0v1536h23h92h12q166 0 307.5 -85t226.5 -231.5t85 -314.5q0 -125 -46.5 -238.5t-132.5 -199.5t-200.5 -138.5t-239.5 -52.5v-276h-127zM172 401q104 0 190.5 38t194 150.5t107.5 315.5q0 209 -109 318.5t-195 147.5t-188 38v-1008z" />
<glyph unicode="q" horiz-adv-x="1695" d="M45 772q0 160 61.5 310.5t173 260t261 172t307.5 62.5q164 0 311.5 -62.5t256 -169t172 -259t63.5 -314.5q0 -336 -246 -579l211 -179l-80 -96l-231 193q-203 -141 -457 -142q-160 0 -306.5 61.5t-258 174t-175 259t-63.5 308.5zM172 772q0 -291 200.5 -484.5 t475.5 -193.5q199 0 356 101l-254 211l82 96l275 -228q12 8 66 66.5t103.5 184.5t49.5 247q0 289 -202 483.5t-476 194.5q-289 0 -482.5 -200.5t-193.5 -477.5z" />
<glyph unicode="r" horiz-adv-x="835" d="M45 0v1536h23h92h12q166 0 307.5 -85t226.5 -231.5t85 -314.5q0 -203 -128 -377t-317 -223l377 -305h-184l-367 293v-293h-127zM172 401q104 0 190.5 38t194 150.5t107.5 315.5q0 209 -109 318.5t-195 147.5t-188 38v-1008z" />
<glyph unicode="s" horiz-adv-x="630" d="M45 0v127h205q88 0 148.5 63.5t60.5 145.5q0 47 -13 78l-323 702q-25 55 -25 123q0 121 86 209t209 88h152v-125h-152q-68 0 -119 -49t-51 -123q0 -39 15 -68l317 -696q31 -61 31 -139q0 -137 -99.5 -236.5t-236.5 -99.5h-205z" />
<glyph unicode="t" horiz-adv-x="661" d="M45 1411v125h571v-125h-223v-1411h-125v1411h-223z" />
<glyph unicode="u" horiz-adv-x="643" d="M45 276v1260h127v-1260q0 -63 45 -108q47 -41 105 -41q63 0 106 46t43 103v1260h127v-1260q0 -117 -80 -196.5t-196 -79.5q-117 0 -197 80t-80 196z" />
<glyph unicode="v" horiz-adv-x="835" d="M45 1536h131l242 -1020l241 1020h132l-371 -1577z" />
<glyph unicode="w" horiz-adv-x="1318" d="M45 1536h131l242 -1020l241 1020l242 -1020l242 1020h131l-371 -1577l-241 1024l-242 -1024z" />
<glyph unicode="x" horiz-adv-x="806" d="M45 2l291 938l-189 598h136l120 -387l119 387h133l-188 -598l295 -938h-133l-228 727l-225 -727h-131z" />
<glyph unicode="y" horiz-adv-x="864" d="M45 1536h156l227 -324l236 324h155l-327 -453v-1083h-125v1081z" />
<glyph unicode="z" horiz-adv-x="647" d="M45 0l393 1411h-346v125h510l-391 -1409h391v-127h-557z" />
<glyph unicode="&#xa1;" d="M45 1452q0 31 25.5 56.5t58.5 27.5q31 0 57.5 -24.5t26.5 -59.5q0 -37 -25.5 -60.5t-58.5 -23.5q-29 0 -56.5 25.5t-27.5 58.5zM59 0l19 1268h108l21 -1268h-148z" />
<glyph unicode="&#xa3;" horiz-adv-x="706" d="M45 829v123h86v62v16h-86v123h105q31 111 103.5 198t181 140t227.5 53v-127q-131 0 -233.5 -73.5t-145.5 -190.5h303v-123h-328v-16v-62h328v-123h-328v-702h393v-127h-520v829h-86z" />
<glyph unicode="&#xad;" horiz-adv-x="442" d="M45 852h324l28 -127h-323z" />
<glyph unicode="&#xb4;" horiz-adv-x="647" d="M45 1153h109v383h411v-125h-284v-258h278l43 -123h-321v-803q0 -80 75.5 -179t202.5 -159v-135q-74 25 -171 91.5t-165.5 165.5t-68.5 222v797h-68z" />
<glyph unicode="&#xbf;" horiz-adv-x="739" d="M45 1452q0 31 25.5 56.5t58.5 27.5q31 0 57.5 -24.5t26.5 -59.5q0 -37 -25.5 -60.5t-58.5 -23.5q-29 0 -56.5 25.5t-27.5 58.5zM66 0v127q131 0 247.5 66.5t167.5 152.5t69.5 150.5t18.5 134.5q0 127 -65.5 244.5t-186 188.5t-251.5 71v125q72 0 127 -10.5t140 -46.5 t175 -126t138 -202.5t48 -243.5q0 -168 -84 -312.5t-228 -231.5t-316 -87z" />
<glyph unicode="&#xc2;" horiz-adv-x="1161" d="M45 -213l326 1782l227 -512l229 510l289 -1567h-129l-211 1145l-176 -395l-176 395l-234 -1262z" />
<glyph unicode="&#xc5;" horiz-adv-x="727" d="M45 1153h111v133q0 109 74.5 186.5t187.5 77.5q61 0 104 -19.5t81 -56t58.5 -84t20.5 -104.5v-1286h-125v1030h-274v-1167l-127 -123v1290h-70zM283 1153h274v133q0 55 -36 98t-103 43q-53 0 -94 -35.5t-41 -105.5v-133z" />
<glyph unicode="&#xce;" horiz-adv-x="1042" d="M45 -10v1546h78q178 0 338 -67.5t280.5 -188.5t188 -281.5t67.5 -339.5q0 -178 -65.5 -335.5t-184 -279.5t-283.5 -191.5t-341 -69.5l-78 4v127l78 -4q332 0 540.5 230.5t208.5 518.5q0 330 -175 490t-286.5 209t-238.5 49v-1305z" />
<glyph unicode="&#xcf;" horiz-adv-x="649" d="M45 1153h111v383h411v-125h-284v-258h278l43 -123h-321v-1167l-127 -123v1290h-70z" />
<glyph unicode="&#xd3;" horiz-adv-x="737" d="M45 1153h111v383h127v-383h282v383h127v-1536h-127v1030h-282v-1167l-127 -123v1290h-70z" />
<glyph unicode="&#xd8;" horiz-adv-x="1056" d="M45 1092q0 131 65.5 243.5t148.5 160.5t141 64.5t128 16.5q133 0 240 -66q111 -61 161 -147t66.5 -144.5t16.5 -127.5q0 -131 -63.5 -243t-148.5 -160t-144.5 -64.5t-127.5 -16.5q-129 0 -240.5 64.5t-160.5 148.5t-65.5 143.5t-16.5 127.5zM172 1092q0 -145 106.5 -252 t249.5 -107t224.5 79t108 140.5t26.5 139.5q0 145 -104.5 251.5t-254.5 106.5q-147 0 -251.5 -105.5t-104.5 -252.5z" />
<glyph unicode="&#x2000;" horiz-adv-x="809" />
<glyph unicode="&#x2001;" horiz-adv-x="1618" />
<glyph unicode="&#x2002;" horiz-adv-x="809" />
<glyph unicode="&#x2003;" horiz-adv-x="1618" />
<glyph unicode="&#x2004;" horiz-adv-x="539" />
<glyph unicode="&#x2005;" horiz-adv-x="404" />
<glyph unicode="&#x2006;" horiz-adv-x="269" />
<glyph unicode="&#x2007;" horiz-adv-x="269" />
<glyph unicode="&#x2008;" horiz-adv-x="202" />
<glyph unicode="&#x2009;" horiz-adv-x="323" />
<glyph unicode="&#x200a;" horiz-adv-x="89" />
<glyph unicode="&#x2010;" horiz-adv-x="442" d="M45 852h324l28 -127h-323z" />
<glyph unicode="&#x2011;" horiz-adv-x="442" d="M45 852h324l28 -127h-323z" />
<glyph unicode="&#x2012;" horiz-adv-x="442" d="M45 852h324l28 -127h-323z" />
<glyph unicode="&#x2013;" horiz-adv-x="1114" d="M45 852h943l81 -127h-940z" />
<glyph unicode="&#x2014;" horiz-adv-x="1763" d="M45 852h1645l28 -127h-1644z" />
<glyph unicode="&#x2018;" horiz-adv-x="260" d="M45 1452q0 31 25.5 56.5t58.5 27.5q31 0 57.5 -24.5t28.5 -59.5q0 -27 -19.5 -52.5t-50.5 -31.5l50 -80l-52 -26l-86 147q-12 18 -12 43z" />
<glyph unicode="&#x2019;" horiz-adv-x="260" d="M45 1452q0 31 25.5 56.5t58.5 27.5q31 0 58.5 -26.5t27.5 -57.5q0 -18 -12 -43l-86 -147l-51 26l47 80q-31 6 -49.5 30.5t-18.5 53.5z" />
<glyph unicode="&#x201c;" horiz-adv-x="475" d="M45 1452q0 29 25.5 56.5t58.5 27.5q31 0 57.5 -24.5t26.5 -59.5q0 -33 -18.5 -54.5t-49.5 -29.5l48 -80l-50 -26l-86 147q-12 18 -12 43zM262 1452q0 29 25.5 56.5t58.5 27.5q31 0 56.5 -24.5t27.5 -59.5q0 -33 -18.5 -54.5t-49.5 -29.5l48 -80l-50 -26l-86 147 q-12 18 -12 43z" />
<glyph unicode="&#x201d;" horiz-adv-x="475" d="M45 1452q0 29 25.5 56.5t58.5 27.5q31 0 57.5 -24.5t26.5 -59.5q0 -25 -12 -43l-86 -147l-49 26l47 80q-31 6 -49.5 30.5t-18.5 53.5zM262 1452q0 29 25.5 56.5t58.5 27.5q31 0 56.5 -24.5t27.5 -59.5q0 -25 -12 -43l-86 -147l-51 26l47 80q-25 6 -47 31q-18 25 -19 53z " />
<glyph unicode="&#x2022;" horiz-adv-x="421" d="M45 780q0 72 47 119t119 47t119 -47t47 -119t-47 -119t-119 -47q-45 0 -82 21.5t-60.5 60.5t-23.5 84z" />
<glyph unicode="&#x202f;" horiz-adv-x="323" />
<glyph unicode="&#x205f;" horiz-adv-x="404" />
<glyph unicode="&#x25fc;" horiz-adv-x="1536" d="M0 0v1536h1536v-1536h-1536z" />
</font>
</defs>
</svg>
